<svg
                        xmlns="http://www.w3.org/2000/svg"
                        width="20.003"
                        height="16.716"
                        viewBox="0 0 20.003 16.716"
                      >
                        <g
                          id="Group_365"
                          data-name="Group 365"
                          transform="translate(-1339 -6055)"
                        >
                          <path
                            id="Path_195"
                            data-name="Path 195"
                            d="M1.92,59.664q.38.268,2.288,1.591t2.925,2.037q.112.078.474.341t.6.424q.24.162.581.363a3.368,3.368,0,0,0,.642.3,1.769,1.769,0,0,0,.558.1h.022a1.77,1.77,0,0,0,.558-.1,3.371,3.371,0,0,0,.642-.3q.34-.2.58-.363t.6-.424q.363-.263.474-.341l5.224-3.628a5.3,5.3,0,0,0,1.362-1.373A2.948,2.948,0,0,0,20,56.606a1.8,1.8,0,0,0-1.786-1.786H1.786a1.594,1.594,0,0,0-1.323.58A2.253,2.253,0,0,0,0,56.851a2.607,2.607,0,0,0,.614,1.524A5.541,5.541,0,0,0,1.92,59.664Z"
                            transform="translate(1339 6000.18)"
                            fill="#fff"
                          />
                          <path
                            id="Path_196"
                            data-name="Path 196"
                            d="M18.886,185.408q-3.661,2.478-5.559,3.851-.636.469-1.032.731a6.371,6.371,0,0,1-1.055.536,3.212,3.212,0,0,1-1.228.273H9.99a3.213,3.213,0,0,1-1.228-.273,6.374,6.374,0,0,1-1.055-.536q-.4-.262-1.032-.731-1.507-1.1-5.548-3.851A5.912,5.912,0,0,1,0,184.437V193.3a1.719,1.719,0,0,0,.525,1.261,1.719,1.719,0,0,0,1.261.525H18.217A1.791,1.791,0,0,0,20,193.3v-8.863A6.155,6.155,0,0,1,18.886,185.408Z"
                            transform="translate(1339 5876.63)"
                            fill="#fff"
                          />
                        </g>
                      </svg>